<?xml version="1.0" encoding="utf-8"?>
<!-- Generator: Adobe Illustrator 26.3.1, SVG Export Plug-In . SVG Version: 6.00 Build 0)  -->
<svg version="1.1" xmlns="http://www.w3.org/2000/svg" xmlns:xlink="http://www.w3.org/1999/xlink" x="0px" y="0px"
	 viewBox="0 0 198.3 209.6" style="enable-background:new 0 0 198.3 209.6;" xml:space="preserve">
<style type="text/css">
	.st0{fill:#2F9E41;}
	.st1{fill:#CE181E;}
</style>
<g id="Layer_1">
</g>
<g id="Layer_2">
	<g>
		<g>
			<path class="st0" d="M126.9,42.8c0,2.4-2,4.4-4.4,4.4H86.1c-2.4,0-4.4-2-4.4-4.4V6.5c0-2.4,2-4.4,4.4-4.4h36.3
				c2.4,0,4.4,2,4.4,4.4V42.8z"/>
			<path class="st0" d="M181,42.8c0,2.4-2,4.4-4.4,4.4h-36.3c-2.4,0-4.4-2-4.4-4.4V6.5c0-2.4,2-4.4,4.4-4.4h36.3
				c2.4,0,4.4,2,4.4,4.4V42.8z"/>
			<path class="st0" d="M181,151c0,2.4-2,4.4-4.4,4.4h-36.3c-2.4,0-4.4-2-4.4-4.4v-36.3c0-2.4,2-4.4,4.4-4.4h36.3
				c2.4,0,4.4,2,4.4,4.4V151z"/>
			<path class="st0" d="M72.8,96.9c0,2.4-2,4.4-4.4,4.4H32c-2.4,0-4.4-2-4.4-4.4V60.6c0-2.4,2-4.4,4.4-4.4h36.3c2.4,0,4.4,2,4.4,4.4
				V96.9z"/>
			<path class="st0" d="M126.9,96.9c0,2.4-2,4.4-4.4,4.4H86.1c-2.4,0-4.4-2-4.4-4.4V60.6c0-2.4,2-4.4,4.4-4.4h36.3
				c2.4,0,4.4,2,4.4,4.4V96.9z"/>
			<path class="st0" d="M72.8,151c0,2.4-2,4.4-4.4,4.4H32c-2.4,0-4.4-2-4.4-4.4v-36.3c0-2.4,2-4.4,4.4-4.4h36.3c2.4,0,4.4,2,4.4,4.4
				V151z"/>
			<path class="st0" d="M126.9,151c0,2.4-2,4.4-4.4,4.4H86.1c-2.4,0-4.4-2-4.4-4.4v-36.3c0-2.4,2-4.4,4.4-4.4h36.3
				c2.4,0,4.4,2,4.4,4.4V151z"/>
			<path class="st0" d="M72.8,205.2c0,2.4-2,4.4-4.4,4.4H32c-2.4,0-4.4-2-4.4-4.4v-36.3c0-2.4,2-4.4,4.4-4.4h36.3
				c2.4,0,4.4,2,4.4,4.4V205.2z"/>
			<path class="st0" d="M126.9,205.2c0,2.4-2,4.4-4.4,4.4H86.1c-2.4,0-4.4-2-4.4-4.4v-36.3c0-2.4,2-4.4,4.4-4.4h36.3
				c2.4,0,4.4,2,4.4,4.4V205.2z"/>
			<path class="st1" d="M75.2,24.6c0,13.7-10.9,24.6-24.6,24.6S25.9,38.4,25.9,24.6C25.9,10.9,36.8,0,50.6,0
				C63.9,0,75.2,10.9,75.2,24.6"/>
		</g>
	</g>
</g>
</svg>
